<?xml version="1.0" encoding="UTF-8"?>
<svg width="200px" height="200px" viewBox="0 0 200 200" version="1.1" xmlns="http://www.w3.org/2000/svg">
    <rect width="200" height="200" fill="#f5f5f5"/>
    <path d="M100,70 C88.954305,70 80,78.954305 80,90 C80,101.045695 88.954305,110 100,110 C111.045695,110 120,101.045695 120,90 C120,78.954305 111.045695,70 100,70 Z M100,100 C94.4771525,100 90,95.5228475 90,90 C90,84.4771525 94.4771525,80 100,80 C105.522847,80 110,84.4771525 110,90 C110,95.5228475 105.522847,100 100,100 Z" fill="#cccccc"/>
    <path d="M140,130 L60,130 C57.2385763,130 55,132.238576 55,135 L55,145 C55,147.761424 57.2385763,150 60,150 L140,150 C142.761424,150 145,147.761424 145,145 L145,135 C145,132.238576 142.761424,130 140,130 Z" fill="#cccccc"/>
    <path d="M100,50 C77.90861,50 60,67.90861 60,90 C60,112.09139 77.90861,130 100,130 C122.09139,130 140,112.09139 140,90 C140,67.90861 122.09139,50 100,50 Z M100,120 C83.4314575,120 70,106.568542 70,90 C70,73.4314575 83.4314575,60 100,60 C116.568542,60 130,73.4314575 130,90 C130,106.568542 116.568542,120 100,120 Z" fill="#cccccc"/>
    <path d="M140,130 L60,130 C57.2385763,130 55,132.238576 55,135 L55,145 C55,147.761424 57.2385763,150 60,150 L140,150 C142.761424,150 145,147.761424 145,145 L145,135 C145,132.238576 142.761424,130 140,130 Z" fill="#cccccc"/>
</svg> 